<svg width="43" height="43" viewBox="0 0 43 43" fill="none" xmlns="http://www.w3.org/2000/svg">
<path d="M9.00208 33.2403V32.0374C9.00208 31.5852 8.82967 31.15 8.52 30.8208C7.86422 30.1234 6.68148 28.8658 5.89298 28.0279C5.38293 27.4853 5.09863 26.7684 5.09863 26.0235C5.09863 23.6059 5.09863 18.0052 5.09863 15.0229C5.09863 13.9456 5.9717 13.0725 7.04905 13.0725H7.05166C7.56886 13.0725 8.06525 13.2781 8.43087 13.6437C8.79649 14.0093 9.00208 14.5057 9.00208 15.0229C9.00208 16.5004 9.00208 18.2771 9.00208 18.2771" stroke="#1B2745" stroke-width="1.20686" stroke-miterlimit="2" stroke-linecap="round" stroke-linejoin="round"/>
<path d="M33.7246 33.2403V32.0374C33.7246 31.5852 33.897 31.15 34.2067 30.8208C34.8625 30.1234 36.0452 28.8658 36.8337 28.0279C37.3438 27.4853 37.6281 26.7684 37.6281 26.0235C37.6281 23.6059 37.6281 18.0052 37.6281 15.0229C37.6281 13.9456 36.755 13.0725 35.6776 13.0725H35.675C35.1578 13.0725 34.6614 13.2781 34.2958 13.6437C33.9302 14.0093 33.7246 14.5057 33.7246 15.0229C33.7246 16.5004 33.7246 18.2771 33.7246 18.2771" stroke="#1B2745" stroke-width="1.20686" stroke-miterlimit="2" stroke-linecap="round" stroke-linejoin="round"/>
<path d="M19.4113 37.3902V34.181C19.4113 33.9318 19.3124 33.6924 19.1355 33.5161C18.9592 33.3391 18.7198 33.2402 18.4706 33.2402C16.3822 33.2402 11.3806 33.2402 9.29229 33.2402C9.04312 33.2402 8.80371 33.3391 8.62741 33.5161C8.45045 33.6924 8.35156 33.9318 8.35156 34.181C8.35156 35.4053 8.35156 37.3902 8.35156 37.3902" stroke="#1B2745" stroke-width="1.20686" stroke-miterlimit="2" stroke-linecap="round" stroke-linejoin="round"/>
<path d="M23.3154 37.3902V34.181C23.3154 33.9318 23.4143 33.6924 23.5913 33.5161C23.7676 33.3391 24.007 33.2402 24.2562 33.2402C26.3445 33.2402 31.3461 33.2402 33.4345 33.2402C33.6836 33.2402 33.923 33.3391 34.0993 33.5161C34.2763 33.6924 34.3752 33.9318 34.3752 34.181C34.3752 35.4053 34.3752 37.3902 34.3752 37.3902" stroke="#1B2745" stroke-width="1.20686" stroke-miterlimit="2" stroke-linecap="round" stroke-linejoin="round"/>
<path d="M18.7613 33.2405V29.6682C18.7613 28.0814 18.1107 26.5643 16.9611 25.47C15.4733 24.0537 13.3986 22.0792 12.0883 20.8314C11.3948 20.1717 10.3025 20.1854 9.62592 20.862L9.62462 20.8633C8.922 21.5659 8.922 22.7057 9.62462 23.4083C10.8659 24.6503 12.5698 26.3535 12.5698 26.3535" stroke="#1B2745" stroke-width="1.20686" stroke-miterlimit="2" stroke-linecap="round" stroke-linejoin="round"/>
<path d="M23.9658 33.2405V29.6682C23.9658 28.0814 24.6164 26.5643 25.766 25.47C27.2538 24.0537 29.3285 22.0792 30.6388 20.8314C31.3323 20.1717 32.4246 20.1854 33.1012 20.862L33.1025 20.8633C33.8051 21.5659 33.8051 22.7057 33.1025 23.4083C31.8612 24.6503 30.1573 26.3535 30.1573 26.3535" stroke="#1B2745" stroke-width="1.20686" stroke-miterlimit="2" stroke-linecap="round" stroke-linejoin="round"/>
<path fill-rule="evenodd" clip-rule="evenodd" d="M26.5674 7.86798C26.5674 6.78998 25.6937 5.91626 24.6157 5.91626C22.7557 5.91626 19.9699 5.91626 18.1099 5.91626C17.0319 5.91626 16.1582 6.78998 16.1582 7.86798C16.1582 9.18214 16.1582 10.9439 16.1582 12.4552C16.1582 14.3763 17.285 16.1186 19.037 16.9058C20.2399 17.447 21.3628 17.9519 21.3628 17.9519C21.3628 17.9519 22.4857 17.447 23.6886 16.9058C25.4406 16.1186 26.5674 14.3763 26.5674 12.4552V7.86798Z" stroke="#1B2745" stroke-width="1.20686" stroke-miterlimit="2" stroke-linecap="round" stroke-linejoin="round"/>
<path d="M19.249 11.6075L20.8755 12.9086L23.4778 10.6316" stroke="#1B2745" stroke-width="1.20686" stroke-miterlimit="2" stroke-linecap="round" stroke-linejoin="round"/>
</svg>
