<svg width="41" height="41" viewBox="0 0 41 41" fill="none" xmlns="http://www.w3.org/2000/svg">
<path d="M8.51202 31.9734V30.821C8.51202 30.3878 8.34686 29.9709 8.05019 29.6555C7.42194 28.9874 6.28885 27.7826 5.53346 26.9799C5.04483 26.4601 4.77246 25.7732 4.77246 25.0596C4.77246 22.7436 4.77246 17.3779 4.77246 14.5209C4.77246 13.4888 5.60888 12.6523 6.641 12.6523H6.64349C7.13898 12.6523 7.61453 12.8493 7.9648 13.1996C8.31507 13.5498 8.51202 14.0254 8.51202 14.5209C8.51202 15.9363 8.51202 17.6384 8.51202 17.6384" stroke="#1B2745" stroke-width="1.15619" stroke-miterlimit="2" stroke-linecap="round" stroke-linejoin="round"/>
<path d="M32.1953 31.9734V30.821C32.1953 30.3878 32.3605 29.9709 32.6571 29.6555C33.2854 28.9874 34.4185 27.7826 35.1739 26.9799C35.6625 26.4601 35.9349 25.7732 35.9349 25.0596C35.9349 22.7436 35.9349 17.3779 35.9349 14.5209C35.9349 13.4888 35.0985 12.6523 34.0663 12.6523H34.0638C33.5684 12.6523 33.0928 12.8493 32.7425 13.1996C32.3923 13.5498 32.1953 14.0254 32.1953 14.5209C32.1953 15.9363 32.1953 17.6384 32.1953 17.6384" stroke="#1B2745" stroke-width="1.15619" stroke-miterlimit="2" stroke-linecap="round" stroke-linejoin="round"/>
<path d="M18.4841 35.9492V32.8746C18.4841 32.6359 18.3894 32.4066 18.2198 32.2377C18.0509 32.0681 17.8216 31.9734 17.5829 31.9734C15.5822 31.9734 10.7906 31.9734 8.78991 31.9734C8.5512 31.9734 8.32184 32.0681 8.15293 32.2377C7.98341 32.4066 7.88867 32.6359 7.88867 32.8746C7.88867 34.0476 7.88867 35.9492 7.88867 35.9492" stroke="#1B2745" stroke-width="1.15619" stroke-miterlimit="2" stroke-linecap="round" stroke-linejoin="round"/>
<path d="M22.2236 35.9492V32.8746C22.2236 32.6359 22.3184 32.4066 22.4879 32.2377C22.6568 32.0681 22.8862 31.9734 23.1249 31.9734C25.1255 31.9734 29.9172 31.9734 31.9178 31.9734C32.1565 31.9734 32.3859 32.0681 32.5548 32.2377C32.7243 32.4066 32.8191 32.6359 32.8191 32.8746C32.8191 34.0476 32.8191 35.9492 32.8191 35.9492" stroke="#1B2745" stroke-width="1.15619" stroke-miterlimit="2" stroke-linecap="round" stroke-linejoin="round"/>
<path d="M17.8605 31.9733V28.5509C17.8605 27.0308 17.2372 25.5774 16.1359 24.529C14.7105 23.1722 12.7229 21.2806 11.4677 20.0852C10.8033 19.4532 9.75682 19.4663 9.10863 20.1145L9.10738 20.1157C8.43426 20.7888 8.43426 21.8808 9.10738 22.5539C10.2966 23.7437 11.9289 25.3754 11.9289 25.3754" stroke="#1B2745" stroke-width="1.15619" stroke-miterlimit="2" stroke-linecap="round" stroke-linejoin="round"/>
<path d="M22.8467 31.9733V28.5509C22.8467 27.0308 23.4699 25.5774 24.5712 24.529C25.9966 23.1722 27.9842 21.2806 29.2395 20.0852C29.9039 19.4532 30.9503 19.4663 31.5985 20.1145L31.5997 20.1157C32.2729 20.7888 32.2729 21.8808 31.5997 22.5539C30.4106 23.7437 28.7782 25.3754 28.7782 25.3754" stroke="#1B2745" stroke-width="1.15619" stroke-miterlimit="2" stroke-linecap="round" stroke-linejoin="round"/>
<path d="M28.0733 16.7227H27.6235V4.81742C27.6235 3.90911 26.9509 3.16992 26.1242 3.16992H22.0009C21.1741 3.16992 20.5015 3.90911 20.5015 4.81742V7.00378C20.3809 6.9756 20.2568 6.95579 20.1266 6.95579H16.0034C15.1767 6.95579 14.504 7.56184 14.504 8.3073V16.7227H13.8668C13.6185 16.7227 13.417 16.9242 13.417 17.1725C13.417 17.4208 13.6185 17.6223 13.8668 17.6223H28.0733C28.3216 17.6223 28.5232 17.4208 28.5232 17.1725C28.5232 16.9242 28.3217 16.7227 28.0733 16.7227ZM15.7035 8.30734C15.7035 8.26326 15.8088 8.15531 16.0034 8.15531H20.1267C20.3213 8.15531 20.4266 8.26296 20.4266 8.30734V16.7227H15.7035V8.30734ZM21.701 4.81742C21.701 4.55324 21.8591 4.36941 22.0009 4.36941H26.1242C26.266 4.36941 26.4241 4.55324 26.4241 4.81742V16.7227H21.701V4.81742Z" fill="#1B2745"/>
<path d="M23.334 4.87646H22.5924C22.3528 4.87646 22.1582 5.07077 22.1582 5.31068V6.05227C22.1582 6.29188 22.3525 6.48648 22.5924 6.48648H23.334C23.5736 6.48648 23.7682 6.29217 23.7682 6.05227V5.31068C23.7682 5.07077 23.5736 4.87646 23.334 4.87646Z" fill="#1B2745"/>
<path d="M23.334 6.97559H22.5924C22.3528 6.97559 22.1582 7.16989 22.1582 7.4098V8.15139C22.1582 8.391 22.3525 8.5856 22.5924 8.5856H23.334C23.5736 8.5856 23.7682 8.39129 23.7682 8.15139V7.4098C23.7682 7.16989 23.5736 6.97559 23.334 6.97559Z" fill="#1B2745"/>
<path d="M23.334 9.07471H22.5924C22.3528 9.07471 22.1582 9.26901 22.1582 9.50892V10.2505C22.1582 10.4901 22.3525 10.6847 22.5924 10.6847H23.334C23.5736 10.6847 23.7682 10.4904 23.7682 10.2505V9.50892C23.7682 9.26901 23.5736 9.07471 23.334 9.07471Z" fill="#1B2745"/>
<path d="M25.5332 4.87646H24.7916C24.552 4.87646 24.3574 5.07077 24.3574 5.31068V6.05227C24.3574 6.29188 24.5517 6.48648 24.7916 6.48648H25.5332C25.7728 6.48648 25.9674 6.29217 25.9674 6.05227V5.31068C25.9674 5.07077 25.7731 4.87646 25.5332 4.87646Z" fill="#1B2745"/>
<path d="M25.5332 6.97559H24.7916C24.552 6.97559 24.3574 7.16989 24.3574 7.4098V8.15139C24.3574 8.391 24.5517 8.5856 24.7916 8.5856H25.5332C25.7728 8.5856 25.9674 8.39129 25.9674 8.15139V7.4098C25.9674 7.16989 25.7731 6.97559 25.5332 6.97559Z" fill="#1B2745"/>
<path d="M25.5332 9.07471H24.7916C24.552 9.07471 24.3574 9.26901 24.3574 9.50892V10.2505C24.3574 10.4901 24.5517 10.6847 24.7916 10.6847H25.5332C25.7728 10.6847 25.9674 10.4904 25.9674 10.2505V9.50892C25.9674 9.26901 25.7731 9.07471 25.5332 9.07471Z" fill="#1B2745"/>
<path d="M23.334 11.1738H22.5924C22.3528 11.1738 22.1582 11.3681 22.1582 11.608V12.3496C22.1582 12.5892 22.3525 12.7838 22.5924 12.7838H23.334C23.5736 12.7838 23.7682 12.5895 23.7682 12.3496V11.608C23.7682 11.3681 23.5736 11.1738 23.334 11.1738Z" fill="#1B2745"/>
<path d="M23.334 13.2729H22.5924C22.3528 13.2729 22.1582 13.4673 22.1582 13.7072V14.4488C22.1582 14.6884 22.3525 14.883 22.5924 14.883H23.334C23.5736 14.883 23.7682 14.6887 23.7682 14.4488V13.7072C23.7682 13.4673 23.5736 13.2729 23.334 13.2729Z" fill="#1B2745"/>
<path d="M25.5332 11.1738H24.7916C24.552 11.1738 24.3574 11.3681 24.3574 11.608V12.3496C24.3574 12.5892 24.5517 12.7838 24.7916 12.7838H25.5332C25.7728 12.7838 25.9674 12.5895 25.9674 12.3496V11.608C25.9674 11.3681 25.7731 11.1738 25.5332 11.1738Z" fill="#1B2745"/>
<path d="M25.5332 13.2729H24.7916C24.552 13.2729 24.3574 13.4673 24.3574 13.7072V14.4488C24.3574 14.6884 24.5517 14.883 24.7916 14.883H25.5332C25.7728 14.883 25.9674 14.6887 25.9674 14.4488V13.7072C25.9674 13.4673 25.7731 13.2729 25.5332 13.2729Z" fill="#1B2745"/>
<path d="M17.3369 9.07471H16.5953C16.3557 9.07471 16.1611 9.26901 16.1611 9.50892V10.2505C16.1611 10.4901 16.3554 10.6847 16.5953 10.6847H17.3369C17.5765 10.6847 17.7711 10.4904 17.7711 10.2505V9.50892C17.7711 9.26901 17.5765 9.07471 17.3369 9.07471Z" fill="#1B2745"/>
<path d="M19.5352 9.07471H18.7936C18.554 9.07471 18.3594 9.26901 18.3594 9.50892V10.2505C18.3594 10.4901 18.5537 10.6847 18.7936 10.6847H19.5352C19.7748 10.6847 19.9694 10.4904 19.9694 10.2505V9.50892C19.9694 9.26901 19.7751 9.07471 19.5352 9.07471Z" fill="#1B2745"/>
<path d="M17.3369 11.1738H16.5953C16.3557 11.1738 16.1611 11.3681 16.1611 11.608V12.3496C16.1611 12.5892 16.3554 12.7838 16.5953 12.7838H17.3369C17.5765 12.7838 17.7711 12.5895 17.7711 12.3496V11.608C17.7711 11.3681 17.5765 11.1738 17.3369 11.1738Z" fill="#1B2745"/>
<path d="M17.3369 13.2729H16.5953C16.3557 13.2729 16.1611 13.4673 16.1611 13.7072V14.4488C16.1611 14.6884 16.3554 14.883 16.5953 14.883H17.3369C17.5765 14.883 17.7711 14.6887 17.7711 14.4488V13.7072C17.7711 13.4673 17.5765 13.2729 17.3369 13.2729Z" fill="#1B2745"/>
<path d="M19.5352 11.1738H18.7936C18.554 11.1738 18.3594 11.3681 18.3594 11.608V12.3496C18.3594 12.5892 18.5537 12.7838 18.7936 12.7838H19.5352C19.7748 12.7838 19.9694 12.5895 19.9694 12.3496V11.608C19.9694 11.3681 19.7751 11.1738 19.5352 11.1738Z" fill="#1B2745"/>
<path d="M19.5352 13.2729H18.7936C18.554 13.2729 18.3594 13.4673 18.3594 13.7072V14.4488C18.3594 14.6884 18.5537 14.883 18.7936 14.883H19.5352C19.7748 14.883 19.9694 14.6887 19.9694 14.4488V13.7072C19.9694 13.4673 19.7751 13.2729 19.5352 13.2729Z" fill="#1B2745"/>
</svg>
