<svg width="42" height="42" viewBox="0 0 42 42" fill="none" xmlns="http://www.w3.org/2000/svg">
<path d="M9.03088 32.4309V31.2543C9.03088 30.812 8.86225 30.3863 8.55936 30.0643C7.91794 29.3822 6.76108 28.1522 5.98985 27.3326C5.49097 26.8019 5.21289 26.1006 5.21289 25.372C5.21289 23.0074 5.21289 17.5293 5.21289 14.6123C5.21289 13.5585 6.06685 12.7046 7.12061 12.7046H7.12316C7.62904 12.7046 8.11456 12.9057 8.47218 13.2633C8.8298 13.6209 9.03088 14.1064 9.03088 14.6123C9.03088 16.0574 9.03088 17.7952 9.03088 17.7952" stroke="#1B2745" stroke-width="1.18044" stroke-miterlimit="2" stroke-linecap="round" stroke-linejoin="round"/>
<path d="M33.2109 32.4309V31.2543C33.2109 30.812 33.3796 30.3863 33.6825 30.0643C34.3239 29.3822 35.4807 28.1522 36.252 27.3326C36.7508 26.8019 37.0289 26.1006 37.0289 25.372C37.0289 23.0074 37.0289 17.5293 37.0289 14.6123C37.0289 13.5585 36.175 12.7046 35.1212 12.7046H35.1187C34.6128 12.7046 34.1273 12.9057 33.7696 13.2633C33.412 13.6209 33.2109 14.1064 33.2109 14.6123C33.2109 16.0574 33.2109 17.7952 33.2109 17.7952" stroke="#1B2745" stroke-width="1.18044" stroke-miterlimit="2" stroke-linecap="round" stroke-linejoin="round"/>
<path d="M19.2131 36.4898V33.3508C19.2131 33.1071 19.1164 32.8729 18.9433 32.7005C18.7709 32.5274 18.5367 32.4307 18.293 32.4307C16.2504 32.4307 11.3583 32.4307 9.31564 32.4307C9.07193 32.4307 8.83776 32.5274 8.66531 32.7005C8.49223 32.8729 8.39551 33.1071 8.39551 33.3508C8.39551 34.5484 8.39551 36.4898 8.39551 36.4898" stroke="#1B2745" stroke-width="1.18044" stroke-miterlimit="2" stroke-linecap="round" stroke-linejoin="round"/>
<path d="M23.0293 36.4898V33.3508C23.0293 33.1071 23.126 32.8729 23.2991 32.7005C23.4715 32.5274 23.7057 32.4307 23.9494 32.4307C25.9921 32.4307 30.8842 32.4307 32.9268 32.4307C33.1705 32.4307 33.4047 32.5274 33.5771 32.7005C33.7502 32.8729 33.8469 33.1071 33.8469 33.3508C33.8469 34.5484 33.8469 36.4898 33.8469 36.4898" stroke="#1B2745" stroke-width="1.18044" stroke-miterlimit="2" stroke-linecap="round" stroke-linejoin="round"/>
<path d="M18.5761 32.4308V28.9367C18.5761 27.3847 17.9398 25.9008 16.8154 24.8305C15.3601 23.4452 13.3308 21.5139 12.0492 20.2934C11.3709 19.6482 10.3025 19.6616 9.64072 20.3233L9.63945 20.3246C8.95221 21.0118 8.95221 22.1267 9.63945 22.8139C10.8536 24.0287 12.5201 25.6946 12.5201 25.6946" stroke="#1B2745" stroke-width="1.18044" stroke-miterlimit="2" stroke-linecap="round" stroke-linejoin="round"/>
<path d="M23.666 32.4308V28.9367C23.666 27.3847 24.3023 25.9008 25.4267 24.8305C26.882 23.4452 28.9113 21.5139 30.1929 20.2934C30.8712 19.6482 31.9396 19.6616 32.6014 20.3233L32.6027 20.3246C33.2899 21.0118 33.2899 22.1267 32.6027 22.8139C31.3885 24.0287 29.722 25.6946 29.722 25.6946" stroke="#1B2745" stroke-width="1.18044" stroke-miterlimit="2" stroke-linecap="round" stroke-linejoin="round"/>
<path d="M16.0312 8.56836V15.2498C16.0312 15.5871 16.1655 15.911 16.4041 16.1496C16.6428 16.3882 16.9667 16.5225 17.3039 16.5225C19.26 16.5225 22.9838 16.5225 24.9399 16.5225C25.2771 16.5225 25.601 16.3882 25.8397 16.1496C26.0783 15.911 26.2126 15.5871 26.2126 15.2498C26.2126 13.003 26.2126 8.56836 26.2126 8.56836" stroke="#1B2745" stroke-width="1.18044" stroke-miterlimit="2" stroke-linecap="round" stroke-linejoin="round"/>
<path d="M14.1211 8.88649L21.1207 5.70483L28.1204 8.88649" stroke="#1B2745" stroke-width="1.18044" stroke-miterlimit="2" stroke-linecap="round" stroke-linejoin="round"/>
<path d="M22.394 16.5226V13.9773C22.394 13.2741 21.8244 12.7046 21.1213 12.7046C20.4181 12.7046 19.8486 13.2741 19.8486 13.9773C19.8486 15.0877 19.8486 16.5226 19.8486 16.5226" stroke="#1B2745" stroke-width="1.18044" stroke-miterlimit="2" stroke-linecap="round" stroke-linejoin="round"/>
<path d="M20.4848 8.25024C20.4848 8.25024 19.3254 8.82994 18.5713 9.20665C18.1844 9.40073 17.9395 9.79653 17.9395 10.2299C17.9395 10.5226 17.9395 10.7956 17.9395 10.7956" stroke="#1B2745" stroke-width="1.18044" stroke-miterlimit="2" stroke-linecap="round" stroke-linejoin="round"/>
</svg>
