<svg width="40" height="40" viewBox="0 0 40 40" fill="none" xmlns="http://www.w3.org/2000/svg">
<path d="M8.65051 30.8965V29.7803C8.65051 29.3607 8.49053 28.9569 8.20317 28.6514C7.59464 28.0042 6.49712 26.8373 5.76544 26.0597C5.29214 25.5562 5.02832 24.891 5.02832 24.1997C5.02832 21.9564 5.02832 16.7591 5.02832 13.9918C5.02832 12.992 5.83848 12.1819 6.83821 12.1819H6.84062C7.32056 12.1819 7.78119 12.3727 8.12047 12.7119C8.45974 13.0512 8.65051 13.5118 8.65051 13.9918C8.65051 15.3628 8.65051 17.0115 8.65051 17.0115" stroke="#1B2745" stroke-width="1.1199" stroke-miterlimit="2" stroke-linecap="round" stroke-linejoin="round"/>
<path d="M31.5918 30.8965V29.7803C31.5918 29.3607 31.7518 28.9569 32.0391 28.6514C32.6477 28.0042 33.7452 26.8373 34.4769 26.0597C34.9502 25.5562 35.214 24.891 35.214 24.1997C35.214 21.9564 35.214 16.7591 35.214 13.9918C35.214 12.992 34.4038 12.1819 33.4041 12.1819H33.4017C32.9217 12.1819 32.4611 12.3727 32.1218 12.7119C31.7826 13.0512 31.5918 13.5118 31.5918 13.9918C31.5918 15.3628 31.5918 17.0115 31.5918 17.0115" stroke="#1B2745" stroke-width="1.1199" stroke-miterlimit="2" stroke-linecap="round" stroke-linejoin="round"/>
<path d="M18.3098 34.7475V31.7694C18.3098 31.5382 18.218 31.3161 18.0538 31.1525C17.8902 30.9882 17.668 30.8965 17.4368 30.8965C15.4989 30.8965 10.8577 30.8965 8.91982 30.8965C8.68861 30.8965 8.46645 30.9882 8.30284 31.1525C8.13864 31.3161 8.04688 31.5382 8.04688 31.7694C8.04688 32.9056 8.04688 34.7475 8.04688 34.7475" stroke="#1B2745" stroke-width="1.1199" stroke-miterlimit="2" stroke-linecap="round" stroke-linejoin="round"/>
<path d="M21.9326 34.7475V31.7694C21.9326 31.5382 22.0244 31.3161 22.1886 31.1525C22.3522 30.9882 22.5743 30.8965 22.8056 30.8965C24.7434 30.8965 29.3847 30.8965 31.3225 30.8965C31.5538 30.8965 31.7759 30.9882 31.9395 31.1525C32.1037 31.3161 32.1955 31.5382 32.1955 31.7694C32.1955 32.9056 32.1955 34.7475 32.1955 34.7475" stroke="#1B2745" stroke-width="1.1199" stroke-miterlimit="2" stroke-linecap="round" stroke-linejoin="round"/>
<path d="M17.7066 30.8966V27.5816C17.7066 26.1092 17.1029 24.7014 16.0362 23.686C14.6555 22.3717 12.7303 20.5395 11.5145 19.3816C10.8709 18.7695 9.85731 18.7821 9.22946 19.41L9.22825 19.4112C8.57626 20.0632 8.57626 21.1209 9.22825 21.7729C10.3801 22.9253 11.9612 24.5058 11.9612 24.5058" stroke="#1B2745" stroke-width="1.1199" stroke-miterlimit="2" stroke-linecap="round" stroke-linejoin="round"/>
<path d="M22.5361 30.8966V27.5816C22.5361 26.1092 23.1398 24.7014 24.2066 23.686C25.5872 22.3717 27.5124 20.5395 28.7283 19.3816C29.3718 18.7695 30.3854 18.7821 31.0133 19.41L31.0145 19.4112C31.6665 20.0632 31.6665 21.1209 31.0145 21.7729C29.8626 22.9253 28.2815 24.5058 28.2815 24.5058" stroke="#1B2745" stroke-width="1.1199" stroke-miterlimit="2" stroke-linecap="round" stroke-linejoin="round"/>
<path d="M20.1214 18.8227C24.2891 18.8227 27.6677 15.4441 27.6677 11.2765C27.6677 7.10879 24.2891 3.73022 20.1214 3.73022C15.9538 3.73022 12.5752 7.10879 12.5752 11.2765C12.5752 15.4441 15.9538 18.8227 20.1214 18.8227Z" stroke="#1B2745" stroke-width="1.1199" stroke-miterlimit="2" stroke-linecap="round" stroke-linejoin="round"/>
<path d="M14.4883 10.2043C14.8004 8.57005 15.8176 7.08375 17.3939 6.23132" stroke="#1B2745" stroke-width="1.1199" stroke-miterlimit="2" stroke-linecap="round" stroke-linejoin="round"/>
<path d="M21.3289 8.86163C21.0531 8.49519 20.6148 8.25793 20.1216 8.25793C19.2884 8.25793 18.6123 8.93408 18.6123 9.76718C18.6123 10.6003 19.2884 11.2764 20.1216 11.2764C20.9547 11.2764 21.6308 11.9526 21.6308 12.7857C21.6308 13.6188 20.9547 14.2949 20.1216 14.2949C19.6283 14.2949 19.19 14.0577 18.9142 13.6912" stroke="#1B2745" stroke-width="1.1199" stroke-miterlimit="2" stroke-linecap="round" stroke-linejoin="round"/>
<path d="M20.1211 8.25793V7.05054" stroke="#1B2745" stroke-width="1.1199" stroke-miterlimit="2" stroke-linecap="round" stroke-linejoin="round"/>
<path d="M20.1211 15.5022V14.2948" stroke="#1B2745" stroke-width="1.1199" stroke-miterlimit="2" stroke-linecap="round" stroke-linejoin="round"/>
</svg>
