<svg width="15" height="19" viewBox="0 0 15 19" fill="none" xmlns="http://www.w3.org/2000/svg">
<path fill-rule="evenodd" clip-rule="evenodd" d="M2.4705 2.37504H4.63227C4.97198 2.37504 5.24992 2.73129 5.24992 3.1667C5.24992 4.15629 5.37345 5.10628 5.60198 5.99295C5.66992 6.27003 5.62051 6.57878 5.44757 6.80045L4.08874 8.54211C4.97815 10.7825 6.4111 12.6113 8.15904 13.7592L9.51787 12.0175C9.64139 11.8671 9.79581 11.7879 9.95639 11.7879C10.0182 11.7879 10.0861 11.7959 10.1479 11.8275C10.8396 12.1204 11.587 12.2788 12.3529 12.2788C12.6926 12.2788 12.9705 12.635 12.9705 13.0704V15.8334C12.9705 16.2688 12.6926 16.625 12.3529 16.625C6.55315 16.625 1.85285 10.6004 1.85285 3.1667C1.85285 2.73129 2.1308 2.37504 2.4705 2.37504ZM4.0392 3.95831C4.07626 4.6629 4.16891 5.35165 4.31714 6.00873L3.57596 6.95873C3.32273 6.00873 3.16214 5.00331 3.10655 3.95831H4.0392ZM10.1292 13.4742C10.6542 13.6642 11.1915 13.7829 11.7351 13.8304V15.01C10.9198 14.9388 10.1354 14.7329 9.38801 14.4163L10.1292 13.4742Z" fill="#E5E5E5"/>
</svg>
