<svg width="50" height="26" viewBox="0 0 50 26" fill="none" xmlns="http://www.w3.org/2000/svg">
<path opacity="0.923" fill-rule="evenodd" clip-rule="evenodd" d="M13.3731 0.0274401C16.0148 7.71334 18.6149 15.4341 21.1736 23.19C21.094 23.4288 21.0144 23.6676 20.9348 23.9064C20.4563 24.6934 19.9257 25.3302 19.3429 25.8167C18.5509 23.3877 17.7285 20.9734 16.8754 18.5734C13.7432 18.4408 10.6124 18.4674 7.483 18.653C6.92358 20.73 6.10108 22.6933 5.01551 24.5432C4.07937 25.927 2.83237 26.325 1.27447 25.7371C0.211254 24.9146 -0.186728 23.8268 0.0805251 22.4737C0.64063 20.3179 1.67538 18.4341 3.18479 16.8223C4.52303 15.7925 6.03536 15.2353 7.72179 15.1508C9.13353 10.9686 10.5132 6.77655 11.8608 2.57453C12.401 1.74352 12.9051 0.894501 13.3731 0.0274401ZM12.0996 4.32565C13.4746 7.92016 14.6951 11.5816 15.761 15.31C13.3708 15.363 10.9829 15.3098 8.59735 15.1508C9.86176 11.5699 11.0292 7.96152 12.0996 4.32565ZM5.0951 18.3346C5.62838 18.3084 6.15902 18.335 6.68703 18.4142C6.23744 19.7631 5.7864 21.1162 5.33389 22.4737C4.80252 22.9223 4.19229 23.0549 3.50317 22.8716C1.82681 22.2003 1.37577 21.0595 2.15003 19.449C3.03043 18.7758 4.01213 18.4042 5.0951 18.3346Z" fill="#1B2745"/>
<path opacity="0.933" fill-rule="evenodd" clip-rule="evenodd" d="M21.9712 0.0274401C24.6291 7.73575 27.2294 15.4832 29.7717 23.2696C29.2556 24.2112 28.6718 25.1134 28.0205 25.9759C27.1875 23.5031 26.3384 21.0357 25.4735 18.5734C23.7231 18.4938 21.972 18.4672 20.2201 18.4938C19.9667 17.4681 19.6483 16.46 19.2649 15.4692C20.9597 15.3101 22.6578 15.2571 24.3591 15.31C23.07 11.1358 21.7434 6.97029 20.3793 2.81332C20.4444 2.44388 20.5772 2.09895 20.7773 1.77856C21.2768 1.25456 21.6748 0.670866 21.9712 0.0274401Z" fill="#1B2745"/>
<path opacity="0.934" fill-rule="evenodd" clip-rule="evenodd" d="M33.5893 0.0275596C35.9538 -0.184167 37.5193 0.82405 38.2855 3.05223C38.6926 4.22993 39.0376 5.42388 39.3203 6.63407C39.302 7.06895 39.1694 7.46693 38.9223 7.82801C38.4852 8.33176 38.0872 8.8624 37.7284 9.41994C37.3157 8.2617 36.9177 7.09429 36.5344 5.9177C35.9508 4.32472 34.8365 3.36956 33.1914 3.05223C32.5493 3.10704 31.9656 3.31929 31.4402 3.689C31.2139 4.09177 31.1608 4.51628 31.281 4.96254C32.3954 8.30559 33.5097 11.6486 34.6241 14.9917C36.2012 15.3037 37.8197 15.4099 39.4795 15.3101C39.5092 14.9815 39.5888 14.6631 39.7183 14.3549C40.2352 13.6928 40.7127 13.0031 41.151 12.2854C42.4387 15.8835 43.6327 19.5183 44.7328 23.1901C44.7145 23.625 44.5819 24.023 44.3349 24.3841C43.9063 24.8922 43.5083 25.4228 43.1409 25.976C42.2609 23.5485 41.4119 21.1076 40.5938 18.6531C39.0054 18.4941 37.4135 18.4411 35.818 18.4939C36.2948 20.084 36.7724 21.6759 37.2508 23.2697C37.2385 23.5561 37.1589 23.8215 37.012 24.0657C36.4731 24.6574 35.9955 25.2942 35.5792 25.976C34.6761 23.5057 33.8538 21.0116 33.1118 18.4939C31.679 18.4939 30.2463 18.4939 28.8135 18.4939C28.5601 17.4683 28.2417 16.4601 27.8584 15.4693C29.2381 15.3631 30.6177 15.2571 31.9974 15.1509C30.9216 12.3483 30.0726 9.48286 29.4503 6.55447C29.518 4.30503 30.367 2.42123 31.9974 0.903121C32.5175 0.564088 33.0481 0.272239 33.5893 0.0275596Z" fill="#1B2745"/>
<path opacity="0.883" fill-rule="evenodd" clip-rule="evenodd" d="M39.7985 8.46478C40.1891 9.12629 40.5075 9.84266 40.7536 10.6139C40.2614 11.6081 39.6776 12.5367 39.0025 13.3998C38.6906 12.7033 38.4254 11.987 38.2065 11.2507C38.5747 10.2216 39.1053 9.29297 39.7985 8.46478Z" fill="#1B2745"/>
<path opacity="0.901" fill-rule="evenodd" clip-rule="evenodd" d="M42.9831 15.3101C45.2673 15.257 47.5491 15.3102 49.8284 15.4692C49.5571 16.4962 49.1327 17.4514 48.5548 18.3347C47.0209 18.5428 45.4819 18.5428 43.9382 18.3347C43.5549 17.3439 43.2365 16.3357 42.9831 15.3101Z" fill="#1B2745"/>
</svg>
