<svg width="60" height="32" viewBox="0 0 60 32" fill="none" xmlns="http://www.w3.org/2000/svg">
<path opacity="0.923" fill-rule="evenodd" clip-rule="evenodd" d="M16.1029 0.033142C19.2838 9.28792 22.4146 18.5847 25.4956 27.9238C25.3998 28.2113 25.3039 28.4988 25.2081 28.7864C24.6319 29.7341 23.993 30.5008 23.2912 31.0866C22.3376 28.1618 21.3473 25.2547 20.3201 22.3648C16.5486 22.2051 12.7787 22.2371 9.01046 22.4606C8.33685 24.9616 7.34645 27.3257 6.03929 29.5531C4.91207 31.2195 3.41052 31.6987 1.53462 30.9908C0.254377 30.0003 -0.224844 28.6905 0.0969623 27.0612C0.771398 24.4653 2.01737 22.1971 3.83488 20.2562C5.44629 19.0162 7.26732 18.3453 9.29799 18.2435C10.9979 13.2077 12.6592 8.15991 14.2819 3.10015C14.9323 2.09952 15.5393 1.07719 16.1029 0.033142ZM14.5694 5.20872C16.2251 9.53696 17.6947 13.9458 18.9782 18.4352C16.1001 18.499 13.2248 18.435 10.3523 18.2435C11.8748 13.9317 13.2805 9.58676 14.5694 5.20872ZM6.13514 22.0773C6.77727 22.0456 7.41623 22.0777 8.05202 22.1731C7.51065 23.7973 6.96754 25.4266 6.42267 27.0612C5.78283 27.6013 5.04804 27.761 4.21826 27.5404C2.1997 26.732 1.65659 25.3584 2.58891 23.4191C3.64902 22.6084 4.8311 22.161 6.13514 22.0773Z" fill="white"/>
<path opacity="0.933" fill-rule="evenodd" clip-rule="evenodd" d="M26.4549 0.033142C29.6553 9.31491 32.7863 18.6438 35.8476 28.0196C35.2262 29.1534 34.5232 30.2397 33.739 31.2783C32.7359 28.3008 31.7135 25.3296 30.672 22.3648C28.5644 22.269 26.4559 22.2369 24.3463 22.269C24.0412 21.0339 23.6578 19.8199 23.1962 18.6269C25.2369 18.4354 27.2816 18.3716 29.3302 18.4352C27.7779 13.409 26.1806 8.3932 24.538 3.38768C24.6164 2.94283 24.7763 2.5275 25.0172 2.14171C25.6187 1.51075 26.098 0.807907 26.4549 0.033142Z" fill="white"/>
<path opacity="0.934" fill-rule="evenodd" clip-rule="evenodd" d="M40.4478 0.0331851C43.2949 -0.22176 45.18 0.992258 46.1026 3.67526C46.5927 5.09337 47.0081 6.53103 47.3485 7.98824C47.3265 8.51189 47.1668 8.99111 46.8693 9.4259C46.3429 10.0325 45.8637 10.6714 45.4316 11.3428C44.9348 9.94812 44.4556 8.54241 43.994 7.12564C43.2913 5.2075 41.9494 4.05737 39.9685 3.67526C39.1955 3.74126 38.4925 3.99683 37.86 4.44201C37.5874 4.927 37.5236 5.43816 37.6683 5.97552C39.0101 10.001 40.3519 14.0264 41.6937 18.0519C43.5928 18.4276 45.5417 18.5554 47.5402 18.4352C47.5761 18.0396 47.6719 17.6562 47.8277 17.2851C48.4502 16.4879 49.0252 15.6573 49.5529 14.7932C51.1035 19.1257 52.5412 23.5025 53.8659 27.9238C53.8439 28.4475 53.6842 28.9267 53.3867 29.3615C52.8707 29.9733 52.3915 30.6122 51.949 31.2783C50.8894 28.3553 49.8671 25.4161 48.882 22.4607C46.9694 22.2692 45.0525 22.2054 43.1314 22.269C43.7055 24.1836 44.2806 26.1005 44.8566 28.0196C44.8418 28.3645 44.746 28.684 44.569 28.9781C43.9202 29.6906 43.3451 30.4573 42.8439 31.2783C41.7564 28.3037 40.7661 25.3005 39.8727 22.269C38.1475 22.269 36.4223 22.269 34.6971 22.269C34.3919 21.034 34.0086 19.82 33.547 18.6269C35.2083 18.4991 36.8695 18.3714 38.5309 18.2436C37.2354 14.8689 36.2132 11.4185 35.4639 7.8924C35.5453 5.18379 36.5676 2.91546 38.5309 1.08747C39.1571 0.679231 39.796 0.32781 40.4478 0.0331851Z" fill="white"/>
<path opacity="0.883" fill-rule="evenodd" clip-rule="evenodd" d="M47.9235 10.1927C48.3939 10.9892 48.7773 11.8518 49.0737 12.7805C48.481 13.9776 47.778 15.0958 46.9651 16.135C46.5896 15.2964 46.2702 14.4338 46.0066 13.5472C46.45 12.3081 47.0889 11.1899 47.9235 10.1927Z" fill="white"/>
<path opacity="0.901" fill-rule="evenodd" clip-rule="evenodd" d="M51.7574 18.4353C54.5079 18.3714 57.2554 18.4355 59.9999 18.627C59.6733 19.8635 59.1623 21.0137 58.4664 22.0773C56.6193 22.3279 54.7663 22.3279 52.9075 22.0773C52.4459 20.8843 52.0625 19.6703 51.7574 18.4353Z" fill="white"/>
</svg>
