<svg width="22" height="22" viewBox="0 0 22 22" fill="none" xmlns="http://www.w3.org/2000/svg">
<path d="M2.75 11H7.33333M2.75 11C2.75 15.5563 6.44365 19.25 11 19.25M2.75 11C2.75 6.44365 6.44365 2.75 11 2.75M7.33333 11H14.6667M7.33333 11C7.33333 15.5563 8.97496 19.25 11 19.25M7.33333 11C7.33333 6.44365 8.97496 2.75 11 2.75M14.6667 11H19.25M14.6667 11C14.6667 6.44365 13.025 2.75 11 2.75M14.6667 11C14.6667 15.5563 13.025 19.25 11 19.25M19.25 11C19.25 6.44365 15.5563 2.75 11 2.75M19.25 11C19.25 15.5563 15.5563 19.25 11 19.25" stroke="white" stroke-width="2" stroke-linecap="round" stroke-linejoin="round"/>
</svg>
