<svg width="27" height="21" viewBox="0 0 27 21" fill="none" xmlns="http://www.w3.org/2000/svg">
<path fill-rule="evenodd" clip-rule="evenodd" d="M3.37495 8.024e-09C1.8002 -0.000109912 0.434663 1.12914 0.0842808 2.72126L13.5001 11.2245L26.9159 2.72126C26.5655 1.12914 25.2 -0.000109912 23.6252 8.024e-09H3.37495ZM0 17.1524V4.72039L9.7927 10.9259L0 17.1524ZM11.4088 11.9522L0.321777 18.9994C0.880921 20.2221 2.06962 21.001 3.37451 20.9997H23.6248C24.9295 21 26.1174 20.2205 26.6758 18.9977L15.5888 11.9504L13.4996 13.2752L11.4088 11.9504V11.9522ZM27.0002 17.1524L17.2075 10.9277V10.9259L27.0002 4.72039V17.1524Z" fill="white"/>
</svg>
