<svg width="28" height="28" viewBox="0 0 28 28" fill="none" xmlns="http://www.w3.org/2000/svg">
<path fill-rule="evenodd" clip-rule="evenodd" d="M3.29946 0.892836C3.60566 0.587079 3.97333 0.34989 4.37812 0.196989C4.78291 0.0440879 5.21557 -0.0210341 5.64742 0.00593838C6.07928 0.0329109 6.50048 0.151362 6.8831 0.353442C7.26572 0.555523 7.60103 0.836617 7.86681 1.1781L11.0079 5.21377C11.5837 5.95405 11.7867 6.91835 11.5592 7.82838L10.602 11.6611C10.5525 11.8596 10.5551 12.0675 10.6097 12.2647C10.6643 12.4618 10.7689 12.6415 10.9135 12.7863L15.2131 17.0863C15.358 17.2311 15.538 17.3359 15.7355 17.3905C15.933 17.4451 16.1413 17.4476 16.34 17.3978L20.1706 16.4405C20.6197 16.3282 21.0884 16.3195 21.5413 16.415C21.9943 16.5105 22.4195 16.7077 22.785 16.9918L26.8204 20.1314C28.2711 21.2602 28.4041 23.4041 27.1057 24.7009L25.2962 26.5104C24.0013 27.8055 22.0658 28.3743 20.2616 27.739C15.6439 26.1141 11.4512 23.4703 7.99455 20.0037C4.52843 16.5473 1.88482 12.3549 0.259815 7.73738C-0.373663 5.9348 0.195067 3.99747 1.49002 2.70241L3.29946 0.892836Z" fill="white"/>
</svg>
