<svg width="28" height="28" viewBox="0 0 28 28" fill="none" xmlns="http://www.w3.org/2000/svg">
<path d="M0 27.9998L1.9779 20.8103C0.758 18.7063 0.116194 16.3192 0.116977 13.8739C0.120103 6.22381 6.37367 0 14.0584 0C17.7875 0.00181087 21.2877 1.44658 23.9202 4.06915C26.5519 6.69171 28.0011 10.1775 27.9998 13.8851C27.9964 21.5347 21.7418 27.7596 14.0584 27.7596C14.0578 27.7596 14.0589 27.7596 14.0584 27.7596H14.0524C11.7194 27.7586 9.42682 27.176 7.39043 26.0705L0 27.9998Z" fill="white"/>
<path d="M14.0628 2.34384C7.6711 2.34384 2.47317 7.51667 2.47082 13.8749C2.46987 16.0537 3.08237 18.1759 4.24222 20.0121L4.51795 20.4483L3.34707 24.7036L7.73272 23.5588L8.15621 23.8086C9.93488 24.8596 11.9741 25.4153 14.0539 25.4163H14.0583C20.445 25.4163 25.6429 20.243 25.6455 13.8842C25.6467 10.8029 24.4427 7.90529 22.2548 5.72566C20.067 3.54604 17.158 2.34514 14.0628 2.34384Z" fill="url(#paint0_linear_221_575)"/>
<path fill-rule="evenodd" clip-rule="evenodd" d="M10.5753 8.0737C10.3142 7.49636 10.0395 7.48467 9.79148 7.47453C9.58834 7.46595 9.35595 7.46647 9.12382 7.46647C8.89144 7.46647 8.51413 7.55329 8.19506 7.90032C7.87572 8.24734 6.97568 9.08618 6.97568 10.7924C6.97568 12.4987 8.22404 14.1473 8.39794 14.3789C8.5721 14.6102 10.8077 18.2234 14.3486 19.6134C17.291 20.7685 17.8898 20.5387 18.5287 20.481C19.1674 20.4233 20.5896 19.6422 20.8797 18.8325C21.1701 18.0228 21.1701 17.329 21.0831 17.1839C20.9959 17.0391 20.7638 16.9526 20.4152 16.7792C20.0669 16.6058 18.3543 15.7667 18.0349 15.651C17.7156 15.5354 17.4835 15.4777 17.2511 15.8247C17.019 16.1717 16.3518 16.9526 16.1484 17.1839C15.9453 17.4155 15.7422 17.4444 15.3936 17.271C15.0453 17.0971 13.9233 16.7314 12.5924 15.5499C11.5568 14.6308 10.8578 13.4956 10.6544 13.1486C10.4513 12.8015 10.6328 12.6139 10.8075 12.441C10.9639 12.2856 11.1558 12.036 11.3302 11.8335C11.5038 11.631 11.5621 11.4865 11.678 11.2554C11.7942 11.0238 11.7362 10.8213 11.649 10.6479C11.5621 10.4745 10.885 8.75943 10.5753 8.0737Z" fill="white"/>
<defs>
<linearGradient id="paint0_linear_221_575" x1="13.8223" y1="3.72844" x2="13.9388" y2="23.4452" gradientUnits="userSpaceOnUse">
<stop stop-color="#57D163"/>
<stop offset="1" stop-color="#23B33A"/>
</linearGradient>
</defs>
</svg>
